<?xml version="1.0" encoding="UTF-8" standalone="no"?>
<!DOCTYPE svg PUBLIC "-//W3C//DTD SVG 1.1//EN"
 "http://www.w3.org/Graphics/SVG/1.1/DTD/svg11.dtd">
<!-- Generated by graphviz version 2.40.1 (20161225.0304)
 -->
<!-- Title: BST Pages: 1 -->
<svg width="530pt" height="462pt"
 viewBox="0.00 0.00 530.00 462.00" xmlns="http://www.w3.org/2000/svg" xmlns:xlink="http://www.w3.org/1999/xlink">
<g id="graph0" class="graph" transform="scale(1 1) rotate(0) translate(4 458)">
<title>BST</title>
<polygon fill="#ffffff" stroke="transparent" points="-4,4 -4,-458 526,-458 526,4 -4,4"/>
<!-- _500 -->
<g id="node1" class="node">
<title>_500</title>
<ellipse fill="#000000" stroke="#000000" cx="269" cy="-418" rx="36" ry="36"/>
<text text-anchor="middle" x="269" y="-413.8" font-family="Times,serif" font-size="14.00" fill="#ffffff">_500</text>
</g>
<!-- _80 -->
<g id="node2" class="node">
<title>_80</title>
<ellipse fill="#ff0000" stroke="#000000" cx="211" cy="-310" rx="36" ry="36"/>
<text text-anchor="middle" x="211" y="-305.8" font-family="Times,serif" font-size="14.00" fill="#ffffff">_80</text>
</g>
<!-- _500&#45;&gt;_80 -->
<g id="edge11" class="edge">
<title>_500&#45;&gt;_80</title>
<path fill="none" stroke="#000000" d="M251.9118,-386.1806C246.0057,-375.1829 239.3017,-362.6997 233.0546,-351.0672"/>
<polygon fill="#000000" stroke="#000000" points="235.9813,-349.1192 228.1665,-341.9652 229.8143,-352.4311 235.9813,-349.1192"/>
</g>
<!-- _1500 -->
<g id="node13" class="node">
<title>_1500</title>
<ellipse fill="#ff0000" stroke="#000000" cx="328" cy="-310" rx="36" ry="36"/>
<text text-anchor="middle" x="328" y="-305.8" font-family="Times,serif" font-size="14.00" fill="#ffffff">_1500</text>
</g>
<!-- _500&#45;&gt;_1500 -->
<g id="edge20" class="edge">
<title>_500&#45;&gt;_1500</title>
<path fill="none" stroke="#000000" d="M286.3828,-386.1806C292.3908,-375.1829 299.2103,-362.6997 305.5651,-351.0672"/>
<polygon fill="#000000" stroke="#000000" points="308.8148,-352.4191 310.5375,-341.9652 302.6717,-349.0631 308.8148,-352.4191"/>
</g>
<!-- _0 -->
<g id="node3" class="node">
<title>_0</title>
<ellipse fill="#000000" stroke="#000000" cx="72" cy="-202" rx="36" ry="36"/>
<text text-anchor="middle" x="72" y="-197.8" font-family="Times,serif" font-size="14.00" fill="#ffffff">_0</text>
</g>
<!-- _80&#45;&gt;_0 -->
<g id="edge3" class="edge">
<title>_80&#45;&gt;_0</title>
<path fill="none" stroke="#000000" d="M182.5359,-287.884C161.3141,-271.3952 132.1395,-248.7271 109.0918,-230.8195"/>
<polygon fill="#000000" stroke="#000000" points="110.9478,-227.8293 100.9038,-224.4576 106.6529,-233.3569 110.9478,-227.8293"/>
</g>
<!-- _200 -->
<g id="node6" class="node">
<title>_200</title>
<ellipse fill="#000000" stroke="#000000" cx="211" cy="-202" rx="36" ry="36"/>
<text text-anchor="middle" x="211" y="-197.8" font-family="Times,serif" font-size="14.00" fill="#ffffff">_200</text>
</g>
<!-- _80&#45;&gt;_200 -->
<g id="edge10" class="edge">
<title>_80&#45;&gt;_200</title>
<path fill="none" stroke="#000000" d="M211,-273.7371C211,-265.6339 211,-256.9311 211,-248.4791"/>
<polygon fill="#000000" stroke="#000000" points="214.5001,-248.351 211,-238.351 207.5001,-248.351 214.5001,-248.351"/>
</g>
<!-- _0lnil -->
<g id="node4" class="node">
<title>_0lnil</title>
<polygon fill="#000000" stroke="#000000" points="36,-105 0,-105 0,-83 36,-83 36,-105"/>
<text text-anchor="middle" x="18" y="-89.8" font-family="Times,serif" font-size="14.00" fill="#ff0000">nil</text>
</g>
<!-- _0&#45;&gt;_0lnil -->
<g id="edge1" class="edge">
<title>_0&#45;&gt;_0lnil</title>
<path fill="none" stroke="#000000" d="M55.7982,-169.5964C46.8278,-151.6555 35.9534,-129.9068 28.1757,-114.3514"/>
<polygon fill="#000000" stroke="#000000" points="31.1656,-112.5049 23.5629,-105.1259 24.9046,-115.6354 31.1656,-112.5049"/>
</g>
<!-- _0rnil -->
<g id="node5" class="node">
<title>_0rnil</title>
<polygon fill="#000000" stroke="#000000" points="90,-105 54,-105 54,-83 90,-83 90,-105"/>
<text text-anchor="middle" x="72" y="-89.8" font-family="Times,serif" font-size="14.00" fill="#ff0000">nil</text>
</g>
<!-- _0&#45;&gt;_0rnil -->
<g id="edge2" class="edge">
<title>_0&#45;&gt;_0rnil</title>
<path fill="none" stroke="#000000" d="M72,-165.7371C72,-149.1035 72,-129.9441 72,-115.6121"/>
<polygon fill="#000000" stroke="#000000" points="75.5001,-115.2934 72,-105.2935 68.5001,-115.2935 75.5001,-115.2934"/>
</g>
<!-- _100 -->
<g id="node7" class="node">
<title>_100</title>
<ellipse fill="#ff0000" stroke="#000000" cx="144" cy="-94" rx="36" ry="36"/>
<text text-anchor="middle" x="144" y="-89.8" font-family="Times,serif" font-size="14.00" fill="#ffffff">_100</text>
</g>
<!-- _200&#45;&gt;_100 -->
<g id="edge6" class="edge">
<title>_200&#45;&gt;_100</title>
<path fill="none" stroke="#000000" d="M191.9797,-171.3404C184.6949,-159.5978 176.279,-146.0318 168.5491,-133.5717"/>
<polygon fill="#000000" stroke="#000000" points="171.3137,-131.3888 163.0679,-124.7362 165.3654,-135.079 171.3137,-131.3888"/>
</g>
<!-- _230 -->
<g id="node10" class="node">
<title>_230</title>
<ellipse fill="#ff0000" stroke="#000000" cx="234" cy="-94" rx="36" ry="36"/>
<text text-anchor="middle" x="234" y="-89.8" font-family="Times,serif" font-size="14.00" fill="#ffffff">_230</text>
</g>
<!-- _200&#45;&gt;_230 -->
<g id="edge9" class="edge">
<title>_200&#45;&gt;_230</title>
<path fill="none" stroke="#000000" d="M218.5311,-166.6368C220.3777,-157.9656 222.38,-148.5636 224.3122,-139.4904"/>
<polygon fill="#000000" stroke="#000000" points="227.7923,-139.9524 226.452,-129.4427 220.9458,-138.4943 227.7923,-139.9524"/>
</g>
<!-- _100lnil -->
<g id="node8" class="node">
<title>_100lnil</title>
<polygon fill="#000000" stroke="#000000" points="117,-22 81,-22 81,0 117,0 117,-22"/>
<text text-anchor="middle" x="99" y="-6.8" font-family="Times,serif" font-size="14.00" fill="#ff0000">nil</text>
</g>
<!-- _100&#45;&gt;_100lnil -->
<g id="edge4" class="edge">
<title>_100&#45;&gt;_100lnil</title>
<path fill="none" stroke="#000000" d="M126.7305,-62.1474C121.0647,-51.6971 114.9304,-40.3827 109.8754,-31.059"/>
<polygon fill="#000000" stroke="#000000" points="112.9062,-29.3058 105.0631,-22.183 106.7525,-32.6423 112.9062,-29.3058"/>
</g>
<!-- _100rnil -->
<g id="node9" class="node">
<title>_100rnil</title>
<polygon fill="#000000" stroke="#000000" points="171,-22 135,-22 135,0 171,0 171,-22"/>
<text text-anchor="middle" x="153" y="-6.8" font-family="Times,serif" font-size="14.00" fill="#ff0000">nil</text>
</g>
<!-- _100&#45;&gt;_100rnil -->
<g id="edge5" class="edge">
<title>_100&#45;&gt;_100rnil</title>
<path fill="none" stroke="#000000" d="M147.9213,-57.8364C148.8744,-49.0475 149.8626,-39.9339 150.7112,-32.1079"/>
<polygon fill="#000000" stroke="#000000" points="154.2011,-32.3891 151.7996,-22.07 147.2419,-31.6344 154.2011,-32.3891"/>
</g>
<!-- _230lnil -->
<g id="node11" class="node">
<title>_230lnil</title>
<polygon fill="#000000" stroke="#000000" points="243,-22 207,-22 207,0 243,0 243,-22"/>
<text text-anchor="middle" x="225" y="-6.8" font-family="Times,serif" font-size="14.00" fill="#ff0000">nil</text>
</g>
<!-- _230&#45;&gt;_230lnil -->
<g id="edge7" class="edge">
<title>_230&#45;&gt;_230lnil</title>
<path fill="none" stroke="#000000" d="M230.0787,-57.8364C229.1256,-49.0475 228.1374,-39.9339 227.2888,-32.1079"/>
<polygon fill="#000000" stroke="#000000" points="230.7581,-31.6344 226.2004,-22.07 223.7989,-32.3891 230.7581,-31.6344"/>
</g>
<!-- _230rnil -->
<g id="node12" class="node">
<title>_230rnil</title>
<polygon fill="#000000" stroke="#000000" points="297,-22 261,-22 261,0 297,0 297,-22"/>
<text text-anchor="middle" x="279" y="-6.8" font-family="Times,serif" font-size="14.00" fill="#ff0000">nil</text>
</g>
<!-- _230&#45;&gt;_230rnil -->
<g id="edge8" class="edge">
<title>_230&#45;&gt;_230rnil</title>
<path fill="none" stroke="#000000" d="M251.2695,-62.1474C256.9353,-51.6971 263.0696,-40.3827 268.1246,-31.059"/>
<polygon fill="#000000" stroke="#000000" points="271.2475,-32.6423 272.9369,-22.183 265.0938,-29.3058 271.2475,-32.6423"/>
</g>
<!-- _700 -->
<g id="node14" class="node">
<title>_700</title>
<ellipse fill="#000000" stroke="#000000" cx="328" cy="-202" rx="36" ry="36"/>
<text text-anchor="middle" x="328" y="-197.8" font-family="Times,serif" font-size="14.00" fill="#ffffff">_700</text>
</g>
<!-- _1500&#45;&gt;_700 -->
<g id="edge16" class="edge">
<title>_1500&#45;&gt;_700</title>
<path fill="none" stroke="#000000" d="M328,-273.7371C328,-265.6339 328,-256.9311 328,-248.4791"/>
<polygon fill="#000000" stroke="#000000" points="331.5001,-248.351 328,-238.351 324.5001,-248.351 331.5001,-248.351"/>
</g>
<!-- _2000 -->
<g id="node19" class="node">
<title>_2000</title>
<ellipse fill="#000000" stroke="#000000" cx="450" cy="-202" rx="36" ry="36"/>
<text text-anchor="middle" x="450" y="-197.8" font-family="Times,serif" font-size="14.00" fill="#ffffff">_2000</text>
</g>
<!-- _1500&#45;&gt;_2000 -->
<g id="edge19" class="edge">
<title>_1500&#45;&gt;_2000</title>
<path fill="none" stroke="#000000" d="M355.0758,-286.0313C372.845,-270.3011 396.2456,-249.5858 415.3663,-232.6593"/>
<polygon fill="#000000" stroke="#000000" points="417.8322,-235.1508 422.9999,-225.9017 413.1923,-229.9094 417.8322,-235.1508"/>
</g>
<!-- _700lnil -->
<g id="node15" class="node">
<title>_700lnil</title>
<polygon fill="#000000" stroke="#000000" points="324,-105 288,-105 288,-83 324,-83 324,-105"/>
<text text-anchor="middle" x="306" y="-89.8" font-family="Times,serif" font-size="14.00" fill="#ff0000">nil</text>
</g>
<!-- _700&#45;&gt;_700lnil -->
<g id="edge12" class="edge">
<title>_700&#45;&gt;_700lnil</title>
<path fill="none" stroke="#000000" d="M320.7964,-166.6368C317.3412,-149.675 313.3164,-129.9171 310.3376,-115.2934"/>
<polygon fill="#000000" stroke="#000000" points="313.7159,-114.3429 308.2902,-105.2428 306.8567,-115.7402 313.7159,-114.3429"/>
</g>
<!-- _1000 -->
<g id="node16" class="node">
<title>_1000</title>
<ellipse fill="#ff0000" stroke="#000000" cx="378" cy="-94" rx="36" ry="36"/>
<text text-anchor="middle" x="378" y="-89.8" font-family="Times,serif" font-size="14.00" fill="#ffffff">_1000</text>
</g>
<!-- _700&#45;&gt;_1000 -->
<g id="edge15" class="edge">
<title>_700&#45;&gt;_1000</title>
<path fill="none" stroke="#000000" d="M343.1373,-169.3034C347.9392,-158.9314 353.3191,-147.3107 358.3887,-136.3604"/>
<polygon fill="#000000" stroke="#000000" points="361.7164,-137.5034 362.7416,-126.9582 355.3641,-134.5625 361.7164,-137.5034"/>
</g>
<!-- _1000lnil -->
<g id="node17" class="node">
<title>_1000lnil</title>
<polygon fill="#000000" stroke="#000000" points="369,-22 333,-22 333,0 369,0 369,-22"/>
<text text-anchor="middle" x="351" y="-6.8" font-family="Times,serif" font-size="14.00" fill="#ff0000">nil</text>
</g>
<!-- _1000&#45;&gt;_1000lnil -->
<g id="edge13" class="edge">
<title>_1000&#45;&gt;_1000lnil</title>
<path fill="none" stroke="#000000" d="M366.8622,-59.7615C363.798,-50.3421 360.5663,-40.4076 357.8252,-31.9812"/>
<polygon fill="#000000" stroke="#000000" points="361.0869,-30.6934 354.665,-22.2666 354.4302,-32.8589 361.0869,-30.6934"/>
</g>
<!-- _1000rnil -->
<g id="node18" class="node">
<title>_1000rnil</title>
<polygon fill="#000000" stroke="#000000" points="423,-22 387,-22 387,0 423,0 423,-22"/>
<text text-anchor="middle" x="405" y="-6.8" font-family="Times,serif" font-size="14.00" fill="#ff0000">nil</text>
</g>
<!-- _1000&#45;&gt;_1000rnil -->
<g id="edge14" class="edge">
<title>_1000&#45;&gt;_1000rnil</title>
<path fill="none" stroke="#000000" d="M389.1378,-59.7615C392.202,-50.3421 395.4337,-40.4076 398.1748,-31.9812"/>
<polygon fill="#000000" stroke="#000000" points="401.5698,-32.8589 401.335,-22.2666 394.9131,-30.6934 401.5698,-32.8589"/>
</g>
<!-- _2000lnil -->
<g id="node20" class="node">
<title>_2000lnil</title>
<polygon fill="#000000" stroke="#000000" points="468,-105 432,-105 432,-83 468,-83 468,-105"/>
<text text-anchor="middle" x="450" y="-89.8" font-family="Times,serif" font-size="14.00" fill="#ff0000">nil</text>
</g>
<!-- _2000&#45;&gt;_2000lnil -->
<g id="edge17" class="edge">
<title>_2000&#45;&gt;_2000lnil</title>
<path fill="none" stroke="#000000" d="M450,-165.7371C450,-149.1035 450,-129.9441 450,-115.6121"/>
<polygon fill="#000000" stroke="#000000" points="453.5001,-115.2934 450,-105.2935 446.5001,-115.2935 453.5001,-115.2934"/>
</g>
<!-- _2000rnil -->
<g id="node21" class="node">
<title>_2000rnil</title>
<polygon fill="#000000" stroke="#000000" points="522,-105 486,-105 486,-83 522,-83 522,-105"/>
<text text-anchor="middle" x="504" y="-89.8" font-family="Times,serif" font-size="14.00" fill="#ff0000">nil</text>
</g>
<!-- _2000&#45;&gt;_2000rnil -->
<g id="edge18" class="edge">
<title>_2000&#45;&gt;_2000rnil</title>
<path fill="none" stroke="#000000" d="M466.2018,-169.5964C475.1722,-151.6555 486.0466,-129.9068 493.8243,-114.3514"/>
<polygon fill="#000000" stroke="#000000" points="497.0954,-115.6354 498.4371,-105.1259 490.8344,-112.5049 497.0954,-115.6354"/>
</g>
</g>
</svg>
