<?xml version="1.0" encoding="UTF-8" standalone="no"?>
<!DOCTYPE svg PUBLIC "-//W3C//DTD SVG 1.1//EN"
 "http://www.w3.org/Graphics/SVG/1.1/DTD/svg11.dtd">
<!-- Generated by graphviz version 2.40.1 (20161225.0304)
 -->
<!-- Title: BST Pages: 1 -->
<svg width="494pt" height="462pt"
 viewBox="0.00 0.00 494.00 462.00" xmlns="http://www.w3.org/2000/svg" xmlns:xlink="http://www.w3.org/1999/xlink">
<g id="graph0" class="graph" transform="scale(1 1) rotate(0) translate(4 458)">
<title>BST</title>
<polygon fill="#ffffff" stroke="transparent" points="-4,4 -4,-458 490,-458 490,4 -4,4"/>
<!-- _500 -->
<g id="node1" class="node">
<title>_500</title>
<ellipse fill="#000000" stroke="#000000" cx="256" cy="-418" rx="36" ry="36"/>
<text text-anchor="middle" x="256" y="-413.8" font-family="Times,serif" font-size="14.00" fill="#ffffff">_500</text>
</g>
<!-- _80 -->
<g id="node2" class="node">
<title>_80</title>
<ellipse fill="#ff0000" stroke="#000000" cx="198" cy="-310" rx="36" ry="36"/>
<text text-anchor="middle" x="198" y="-305.8" font-family="Times,serif" font-size="14.00" fill="#ffffff">_80</text>
</g>
<!-- _500&#45;&gt;_80 -->
<g id="edge11" class="edge">
<title>_500&#45;&gt;_80</title>
<path fill="none" stroke="#000000" d="M238.9118,-386.1806C233.0057,-375.1829 226.3017,-362.6997 220.0546,-351.0672"/>
<polygon fill="#000000" stroke="#000000" points="222.9813,-349.1192 215.1665,-341.9652 216.8143,-352.4311 222.9813,-349.1192"/>
</g>
<!-- _1500 -->
<g id="node13" class="node">
<title>_1500</title>
<ellipse fill="#ff0000" stroke="#000000" cx="315" cy="-310" rx="36" ry="36"/>
<text text-anchor="middle" x="315" y="-305.8" font-family="Times,serif" font-size="14.00" fill="#ffffff">_1500</text>
</g>
<!-- _500&#45;&gt;_1500 -->
<g id="edge18" class="edge">
<title>_500&#45;&gt;_1500</title>
<path fill="none" stroke="#000000" d="M273.3828,-386.1806C279.3908,-375.1829 286.2103,-362.6997 292.5651,-351.0672"/>
<polygon fill="#000000" stroke="#000000" points="295.8148,-352.4191 297.5375,-341.9652 289.6717,-349.0631 295.8148,-352.4191"/>
</g>
<!-- _0 -->
<g id="node3" class="node">
<title>_0</title>
<ellipse fill="#000000" stroke="#000000" cx="72" cy="-202" rx="36" ry="36"/>
<text text-anchor="middle" x="72" y="-197.8" font-family="Times,serif" font-size="14.00" fill="#ffffff">_0</text>
</g>
<!-- _80&#45;&gt;_0 -->
<g id="edge3" class="edge">
<title>_80&#45;&gt;_0</title>
<path fill="none" stroke="#000000" d="M170.6599,-286.5656C152.1299,-270.6828 127.4631,-249.5398 107.4297,-232.3683"/>
<polygon fill="#000000" stroke="#000000" points="109.5923,-229.6122 99.7219,-225.7616 105.0367,-234.927 109.5923,-229.6122"/>
</g>
<!-- _200 -->
<g id="node6" class="node">
<title>_200</title>
<ellipse fill="#000000" stroke="#000000" cx="198" cy="-202" rx="36" ry="36"/>
<text text-anchor="middle" x="198" y="-197.8" font-family="Times,serif" font-size="14.00" fill="#ffffff">_200</text>
</g>
<!-- _80&#45;&gt;_200 -->
<g id="edge10" class="edge">
<title>_80&#45;&gt;_200</title>
<path fill="none" stroke="#000000" d="M198,-273.7371C198,-265.6339 198,-256.9311 198,-248.4791"/>
<polygon fill="#000000" stroke="#000000" points="201.5001,-248.351 198,-238.351 194.5001,-248.351 201.5001,-248.351"/>
</g>
<!-- _0lnil -->
<g id="node4" class="node">
<title>_0lnil</title>
<polygon fill="#000000" stroke="#000000" points="36,-105 0,-105 0,-83 36,-83 36,-105"/>
<text text-anchor="middle" x="18" y="-89.8" font-family="Times,serif" font-size="14.00" fill="#ff0000">nil</text>
</g>
<!-- _0&#45;&gt;_0lnil -->
<g id="edge1" class="edge">
<title>_0&#45;&gt;_0lnil</title>
<path fill="none" stroke="#000000" d="M55.7982,-169.5964C46.8278,-151.6555 35.9534,-129.9068 28.1757,-114.3514"/>
<polygon fill="#000000" stroke="#000000" points="31.1656,-112.5049 23.5629,-105.1259 24.9046,-115.6354 31.1656,-112.5049"/>
</g>
<!-- _0rnil -->
<g id="node5" class="node">
<title>_0rnil</title>
<polygon fill="#000000" stroke="#000000" points="90,-105 54,-105 54,-83 90,-83 90,-105"/>
<text text-anchor="middle" x="72" y="-89.8" font-family="Times,serif" font-size="14.00" fill="#ff0000">nil</text>
</g>
<!-- _0&#45;&gt;_0rnil -->
<g id="edge2" class="edge">
<title>_0&#45;&gt;_0rnil</title>
<path fill="none" stroke="#000000" d="M72,-165.7371C72,-149.1035 72,-129.9441 72,-115.6121"/>
<polygon fill="#000000" stroke="#000000" points="75.5001,-115.2934 72,-105.2935 68.5001,-115.2935 75.5001,-115.2934"/>
</g>
<!-- _100 -->
<g id="node7" class="node">
<title>_100</title>
<ellipse fill="#ff0000" stroke="#000000" cx="144" cy="-94" rx="36" ry="36"/>
<text text-anchor="middle" x="144" y="-89.8" font-family="Times,serif" font-size="14.00" fill="#ffffff">_100</text>
</g>
<!-- _200&#45;&gt;_100 -->
<g id="edge6" class="edge">
<title>_200&#45;&gt;_100</title>
<path fill="none" stroke="#000000" d="M181.7982,-169.5964C176.4587,-158.9173 170.4445,-146.8891 164.8104,-135.6209"/>
<polygon fill="#000000" stroke="#000000" points="167.793,-133.7597 160.1903,-126.3807 161.532,-136.8902 167.793,-133.7597"/>
</g>
<!-- _230 -->
<g id="node10" class="node">
<title>_230</title>
<ellipse fill="#ff0000" stroke="#000000" cx="234" cy="-94" rx="36" ry="36"/>
<text text-anchor="middle" x="234" y="-89.8" font-family="Times,serif" font-size="14.00" fill="#ffffff">_230</text>
</g>
<!-- _200&#45;&gt;_230 -->
<g id="edge9" class="edge">
<title>_200&#45;&gt;_230</title>
<path fill="none" stroke="#000000" d="M209.3906,-167.8281C212.5423,-158.373 216.008,-147.9761 219.3185,-138.0446"/>
<polygon fill="#000000" stroke="#000000" points="222.718,-138.9139 222.5599,-128.3203 216.0772,-136.7003 222.718,-138.9139"/>
</g>
<!-- _100lnil -->
<g id="node8" class="node">
<title>_100lnil</title>
<polygon fill="#000000" stroke="#000000" points="117,-22 81,-22 81,0 117,0 117,-22"/>
<text text-anchor="middle" x="99" y="-6.8" font-family="Times,serif" font-size="14.00" fill="#ff0000">nil</text>
</g>
<!-- _100&#45;&gt;_100lnil -->
<g id="edge4" class="edge">
<title>_100&#45;&gt;_100lnil</title>
<path fill="none" stroke="#000000" d="M126.7305,-62.1474C121.0647,-51.6971 114.9304,-40.3827 109.8754,-31.059"/>
<polygon fill="#000000" stroke="#000000" points="112.9062,-29.3058 105.0631,-22.183 106.7525,-32.6423 112.9062,-29.3058"/>
</g>
<!-- _100rnil -->
<g id="node9" class="node">
<title>_100rnil</title>
<polygon fill="#000000" stroke="#000000" points="171,-22 135,-22 135,0 171,0 171,-22"/>
<text text-anchor="middle" x="153" y="-6.8" font-family="Times,serif" font-size="14.00" fill="#ff0000">nil</text>
</g>
<!-- _100&#45;&gt;_100rnil -->
<g id="edge5" class="edge">
<title>_100&#45;&gt;_100rnil</title>
<path fill="none" stroke="#000000" d="M147.9213,-57.8364C148.8744,-49.0475 149.8626,-39.9339 150.7112,-32.1079"/>
<polygon fill="#000000" stroke="#000000" points="154.2011,-32.3891 151.7996,-22.07 147.2419,-31.6344 154.2011,-32.3891"/>
</g>
<!-- _230lnil -->
<g id="node11" class="node">
<title>_230lnil</title>
<polygon fill="#000000" stroke="#000000" points="243,-22 207,-22 207,0 243,0 243,-22"/>
<text text-anchor="middle" x="225" y="-6.8" font-family="Times,serif" font-size="14.00" fill="#ff0000">nil</text>
</g>
<!-- _230&#45;&gt;_230lnil -->
<g id="edge7" class="edge">
<title>_230&#45;&gt;_230lnil</title>
<path fill="none" stroke="#000000" d="M230.0787,-57.8364C229.1256,-49.0475 228.1374,-39.9339 227.2888,-32.1079"/>
<polygon fill="#000000" stroke="#000000" points="230.7581,-31.6344 226.2004,-22.07 223.7989,-32.3891 230.7581,-31.6344"/>
</g>
<!-- _230rnil -->
<g id="node12" class="node">
<title>_230rnil</title>
<polygon fill="#000000" stroke="#000000" points="297,-22 261,-22 261,0 297,0 297,-22"/>
<text text-anchor="middle" x="279" y="-6.8" font-family="Times,serif" font-size="14.00" fill="#ff0000">nil</text>
</g>
<!-- _230&#45;&gt;_230rnil -->
<g id="edge8" class="edge">
<title>_230&#45;&gt;_230rnil</title>
<path fill="none" stroke="#000000" d="M251.2695,-62.1474C256.9353,-51.6971 263.0696,-40.3827 268.1246,-31.059"/>
<polygon fill="#000000" stroke="#000000" points="271.2475,-32.6423 272.9369,-22.183 265.0938,-29.3058 271.2475,-32.6423"/>
</g>
<!-- _1000 -->
<g id="node14" class="node">
<title>_1000</title>
<ellipse fill="#000000" stroke="#000000" cx="315" cy="-202" rx="36" ry="36"/>
<text text-anchor="middle" x="315" y="-197.8" font-family="Times,serif" font-size="14.00" fill="#ffffff">_1000</text>
</g>
<!-- _1500&#45;&gt;_1000 -->
<g id="edge14" class="edge">
<title>_1500&#45;&gt;_1000</title>
<path fill="none" stroke="#000000" d="M315,-273.7371C315,-265.6339 315,-256.9311 315,-248.4791"/>
<polygon fill="#000000" stroke="#000000" points="318.5001,-248.351 315,-238.351 311.5001,-248.351 318.5001,-248.351"/>
</g>
<!-- _2000 -->
<g id="node17" class="node">
<title>_2000</title>
<ellipse fill="#000000" stroke="#000000" cx="414" cy="-202" rx="36" ry="36"/>
<text text-anchor="middle" x="414" y="-197.8" font-family="Times,serif" font-size="14.00" fill="#ffffff">_2000</text>
</g>
<!-- _1500&#45;&gt;_2000 -->
<g id="edge17" class="edge">
<title>_1500&#45;&gt;_2000</title>
<path fill="none" stroke="#000000" d="M339.4719,-283.3034C352.442,-269.1541 368.5232,-251.6111 382.424,-236.4465"/>
<polygon fill="#000000" stroke="#000000" points="385.2893,-238.5004 389.4665,-228.7638 380.1292,-233.7703 385.2893,-238.5004"/>
</g>
<!-- _1000lnil -->
<g id="node15" class="node">
<title>_1000lnil</title>
<polygon fill="#000000" stroke="#000000" points="324,-105 288,-105 288,-83 324,-83 324,-105"/>
<text text-anchor="middle" x="306" y="-89.8" font-family="Times,serif" font-size="14.00" fill="#ff0000">nil</text>
</g>
<!-- _1000&#45;&gt;_1000lnil -->
<g id="edge12" class="edge">
<title>_1000&#45;&gt;_1000lnil</title>
<path fill="none" stroke="#000000" d="M312.0031,-166.0376C310.6151,-149.3817 309.0116,-130.1391 307.8112,-115.7339"/>
<polygon fill="#000000" stroke="#000000" points="311.2651,-115.0349 306.9467,-105.3601 304.2893,-115.6163 311.2651,-115.0349"/>
</g>
<!-- _1000rnil -->
<g id="node16" class="node">
<title>_1000rnil</title>
<polygon fill="#000000" stroke="#000000" points="378,-105 342,-105 342,-83 378,-83 378,-105"/>
<text text-anchor="middle" x="360" y="-89.8" font-family="Times,serif" font-size="14.00" fill="#ff0000">nil</text>
</g>
<!-- _1000&#45;&gt;_1000rnil -->
<g id="edge13" class="edge">
<title>_1000&#45;&gt;_1000rnil</title>
<path fill="none" stroke="#000000" d="M328.8687,-168.7152C336.2125,-151.0901 345.0022,-129.9946 351.3662,-114.7211"/>
<polygon fill="#000000" stroke="#000000" points="354.7215,-115.7683 355.3369,-105.1914 348.2599,-113.076 354.7215,-115.7683"/>
</g>
<!-- _2000lnil -->
<g id="node18" class="node">
<title>_2000lnil</title>
<polygon fill="#000000" stroke="#000000" points="432,-105 396,-105 396,-83 432,-83 432,-105"/>
<text text-anchor="middle" x="414" y="-89.8" font-family="Times,serif" font-size="14.00" fill="#ff0000">nil</text>
</g>
<!-- _2000&#45;&gt;_2000lnil -->
<g id="edge15" class="edge">
<title>_2000&#45;&gt;_2000lnil</title>
<path fill="none" stroke="#000000" d="M414,-165.7371C414,-149.1035 414,-129.9441 414,-115.6121"/>
<polygon fill="#000000" stroke="#000000" points="417.5001,-115.2934 414,-105.2935 410.5001,-115.2935 417.5001,-115.2934"/>
</g>
<!-- _2000rnil -->
<g id="node19" class="node">
<title>_2000rnil</title>
<polygon fill="#000000" stroke="#000000" points="486,-105 450,-105 450,-83 486,-83 486,-105"/>
<text text-anchor="middle" x="468" y="-89.8" font-family="Times,serif" font-size="14.00" fill="#ff0000">nil</text>
</g>
<!-- _2000&#45;&gt;_2000rnil -->
<g id="edge16" class="edge">
<title>_2000&#45;&gt;_2000rnil</title>
<path fill="none" stroke="#000000" d="M430.2018,-169.5964C439.1722,-151.6555 450.0466,-129.9068 457.8243,-114.3514"/>
<polygon fill="#000000" stroke="#000000" points="461.0954,-115.6354 462.4371,-105.1259 454.8344,-112.5049 461.0954,-115.6354"/>
</g>
</g>
</svg>
