<?xml version="1.0" encoding="UTF-8" standalone="no"?>
<!DOCTYPE svg PUBLIC "-//W3C//DTD SVG 1.1//EN"
 "http://www.w3.org/Graphics/SVG/1.1/DTD/svg11.dtd">
<!-- Generated by graphviz version 2.40.1 (20161225.0304)
 -->
<!-- Title: BST Pages: 1 -->
<svg width="314pt" height="354pt"
 viewBox="0.00 0.00 314.00 354.00" xmlns="http://www.w3.org/2000/svg" xmlns:xlink="http://www.w3.org/1999/xlink">
<g id="graph0" class="graph" transform="scale(1 1) rotate(0) translate(4 350)">
<title>BST</title>
<polygon fill="#ffffff" stroke="transparent" points="-4,4 -4,-350 310,-350 310,4 -4,4"/>
<!-- _100 -->
<g id="node1" class="node">
<title>_100</title>
<ellipse fill="#000000" stroke="#000000" cx="112" cy="-310" rx="36" ry="36"/>
<text text-anchor="middle" x="112" y="-305.8" font-family="Times,serif" font-size="14.00" fill="#ffffff">_100</text>
</g>
<!-- _0 -->
<g id="node2" class="node">
<title>_0</title>
<ellipse fill="#000000" stroke="#000000" cx="67" cy="-202" rx="36" ry="36"/>
<text text-anchor="middle" x="67" y="-197.8" font-family="Times,serif" font-size="14.00" fill="#ffffff">_0</text>
</g>
<!-- _100&#45;&gt;_0 -->
<g id="edge3" class="edge">
<title>_100&#45;&gt;_0</title>
<path fill="none" stroke="#000000" d="M98.1313,-276.7152C93.9397,-266.6553 89.277,-255.4649 84.8632,-244.8717"/>
<polygon fill="#000000" stroke="#000000" points="87.9773,-243.2454 80.9003,-235.3608 81.5158,-245.9378 87.9773,-243.2454"/>
</g>
<!-- _230 -->
<g id="node5" class="node">
<title>_230</title>
<ellipse fill="#ff0000" stroke="#000000" cx="157" cy="-202" rx="36" ry="36"/>
<text text-anchor="middle" x="157" y="-197.8" font-family="Times,serif" font-size="14.00" fill="#ffffff">_230</text>
</g>
<!-- _100&#45;&gt;_230 -->
<g id="edge10" class="edge">
<title>_100&#45;&gt;_230</title>
<path fill="none" stroke="#000000" d="M125.8687,-276.7152C130.0603,-266.6553 134.723,-255.4649 139.1368,-244.8717"/>
<polygon fill="#000000" stroke="#000000" points="142.4842,-245.9378 143.0997,-235.3608 136.0227,-243.2454 142.4842,-245.9378"/>
</g>
<!-- _0lnil -->
<g id="node3" class="node">
<title>_0lnil</title>
<polygon fill="#000000" stroke="#000000" points="36,-105 0,-105 0,-83 36,-83 36,-105"/>
<text text-anchor="middle" x="18" y="-89.8" font-family="Times,serif" font-size="14.00" fill="#ff0000">nil</text>
</g>
<!-- _0&#45;&gt;_0lnil -->
<g id="edge1" class="edge">
<title>_0&#45;&gt;_0lnil</title>
<path fill="none" stroke="#000000" d="M52.0321,-169.0096C43.9054,-151.0976 34.1209,-129.5318 27.1333,-114.1305"/>
<polygon fill="#000000" stroke="#000000" points="30.3098,-112.6606 22.9908,-105.0001 23.9352,-115.5528 30.3098,-112.6606"/>
</g>
<!-- _0rnil -->
<g id="node4" class="node">
<title>_0rnil</title>
<polygon fill="#000000" stroke="#000000" points="90,-105 54,-105 54,-83 90,-83 90,-105"/>
<text text-anchor="middle" x="72" y="-89.8" font-family="Times,serif" font-size="14.00" fill="#ff0000">nil</text>
</g>
<!-- _0&#45;&gt;_0rnil -->
<g id="edge2" class="edge">
<title>_0&#45;&gt;_0rnil</title>
<path fill="none" stroke="#000000" d="M68.6649,-166.0376C69.436,-149.3817 70.3269,-130.1391 70.9938,-115.7339"/>
<polygon fill="#000000" stroke="#000000" points="74.5078,-115.5113 71.4741,-105.3601 67.5153,-115.1875 74.5078,-115.5113"/>
</g>
<!-- _200 -->
<g id="node6" class="node">
<title>_200</title>
<ellipse fill="#000000" stroke="#000000" cx="153" cy="-94" rx="36" ry="36"/>
<text text-anchor="middle" x="153" y="-89.8" font-family="Times,serif" font-size="14.00" fill="#ffffff">_200</text>
</g>
<!-- _230&#45;&gt;_200 -->
<g id="edge6" class="edge">
<title>_230&#45;&gt;_200</title>
<path fill="none" stroke="#000000" d="M155.6569,-165.7371C155.3536,-157.5467 155.0276,-148.7439 154.7114,-140.2066"/>
<polygon fill="#000000" stroke="#000000" points="158.2005,-139.8471 154.3327,-129.9835 151.2053,-140.1063 158.2005,-139.8471"/>
</g>
<!-- _1500 -->
<g id="node9" class="node">
<title>_1500</title>
<ellipse fill="#000000" stroke="#000000" cx="243" cy="-94" rx="36" ry="36"/>
<text text-anchor="middle" x="243" y="-89.8" font-family="Times,serif" font-size="14.00" fill="#ffffff">_1500</text>
</g>
<!-- _230&#45;&gt;_1500 -->
<g id="edge9" class="edge">
<title>_230&#45;&gt;_1500</title>
<path fill="none" stroke="#000000" d="M179.5955,-173.6243C190.1623,-160.3544 202.8691,-144.3969 214.1238,-130.2631"/>
<polygon fill="#000000" stroke="#000000" points="217.0641,-132.1893 220.5554,-122.1862 211.5881,-127.8288 217.0641,-132.1893"/>
</g>
<!-- _200lnil -->
<g id="node7" class="node">
<title>_200lnil</title>
<polygon fill="#000000" stroke="#000000" points="126,-22 90,-22 90,0 126,0 126,-22"/>
<text text-anchor="middle" x="108" y="-6.8" font-family="Times,serif" font-size="14.00" fill="#ff0000">nil</text>
</g>
<!-- _200&#45;&gt;_200lnil -->
<g id="edge4" class="edge">
<title>_200&#45;&gt;_200lnil</title>
<path fill="none" stroke="#000000" d="M135.7305,-62.1474C130.0647,-51.6971 123.9304,-40.3827 118.8754,-31.059"/>
<polygon fill="#000000" stroke="#000000" points="121.9062,-29.3058 114.0631,-22.183 115.7525,-32.6423 121.9062,-29.3058"/>
</g>
<!-- _200rnil -->
<g id="node8" class="node">
<title>_200rnil</title>
<polygon fill="#000000" stroke="#000000" points="180,-22 144,-22 144,0 180,0 180,-22"/>
<text text-anchor="middle" x="162" y="-6.8" font-family="Times,serif" font-size="14.00" fill="#ff0000">nil</text>
</g>
<!-- _200&#45;&gt;_200rnil -->
<g id="edge5" class="edge">
<title>_200&#45;&gt;_200rnil</title>
<path fill="none" stroke="#000000" d="M156.9213,-57.8364C157.8744,-49.0475 158.8626,-39.9339 159.7112,-32.1079"/>
<polygon fill="#000000" stroke="#000000" points="163.2011,-32.3891 160.7996,-22.07 156.2419,-31.6344 163.2011,-32.3891"/>
</g>
<!-- _1500lnil -->
<g id="node10" class="node">
<title>_1500lnil</title>
<polygon fill="#000000" stroke="#000000" points="252,-22 216,-22 216,0 252,0 252,-22"/>
<text text-anchor="middle" x="234" y="-6.8" font-family="Times,serif" font-size="14.00" fill="#ff0000">nil</text>
</g>
<!-- _1500&#45;&gt;_1500lnil -->
<g id="edge7" class="edge">
<title>_1500&#45;&gt;_1500lnil</title>
<path fill="none" stroke="#000000" d="M239.0787,-57.8364C238.1256,-49.0475 237.1374,-39.9339 236.2888,-32.1079"/>
<polygon fill="#000000" stroke="#000000" points="239.7581,-31.6344 235.2004,-22.07 232.7989,-32.3891 239.7581,-31.6344"/>
</g>
<!-- _1500rnil -->
<g id="node11" class="node">
<title>_1500rnil</title>
<polygon fill="#000000" stroke="#000000" points="306,-22 270,-22 270,0 306,0 306,-22"/>
<text text-anchor="middle" x="288" y="-6.8" font-family="Times,serif" font-size="14.00" fill="#ff0000">nil</text>
</g>
<!-- _1500&#45;&gt;_1500rnil -->
<g id="edge8" class="edge">
<title>_1500&#45;&gt;_1500rnil</title>
<path fill="none" stroke="#000000" d="M260.2695,-62.1474C265.9353,-51.6971 272.0696,-40.3827 277.1246,-31.059"/>
<polygon fill="#000000" stroke="#000000" points="280.2475,-32.6423 281.9369,-22.183 274.0938,-29.3058 280.2475,-32.6423"/>
</g>
</g>
</svg>
