<?xml version="1.0" encoding="UTF-8" standalone="no"?>
<!DOCTYPE svg PUBLIC "-//W3C//DTD SVG 1.1//EN"
 "http://www.w3.org/Graphics/SVG/1.1/DTD/svg11.dtd">
<!-- Generated by graphviz version 2.40.1 (20161225.0304)
 -->
<!-- Title: BST Pages: 1 -->
<svg width="389pt" height="462pt"
 viewBox="0.00 0.00 389.00 462.00" xmlns="http://www.w3.org/2000/svg" xmlns:xlink="http://www.w3.org/1999/xlink">
<g id="graph0" class="graph" transform="scale(1 1) rotate(0) translate(4 458)">
<title>BST</title>
<polygon fill="#ffffff" stroke="transparent" points="-4,4 -4,-458 385,-458 385,4 -4,4"/>
<!-- _1000 -->
<g id="node1" class="node">
<title>_1000</title>
<ellipse fill="#000000" stroke="#000000" cx="197" cy="-418" rx="36" ry="36"/>
<text text-anchor="middle" x="197" y="-413.8" font-family="Times,serif" font-size="14.00" fill="#ffffff">_1000</text>
</g>
<!-- _80 -->
<g id="node2" class="node">
<title>_80</title>
<ellipse fill="#ff0000" stroke="#000000" cx="152" cy="-310" rx="36" ry="36"/>
<text text-anchor="middle" x="152" y="-305.8" font-family="Times,serif" font-size="14.00" fill="#ffffff">_80</text>
</g>
<!-- _1000&#45;&gt;_80 -->
<g id="edge11" class="edge">
<title>_1000&#45;&gt;_80</title>
<path fill="none" stroke="#000000" d="M183.1313,-384.7152C178.9397,-374.6553 174.277,-363.4649 169.8632,-352.8717"/>
<polygon fill="#000000" stroke="#000000" points="172.9773,-351.2454 165.9003,-343.3608 166.5158,-353.9378 172.9773,-351.2454"/>
</g>
<!-- _1500 -->
<g id="node13" class="node">
<title>_1500</title>
<ellipse fill="#000000" stroke="#000000" cx="242" cy="-310" rx="36" ry="36"/>
<text text-anchor="middle" x="242" y="-305.8" font-family="Times,serif" font-size="14.00" fill="#ffffff">_1500</text>
</g>
<!-- _1000&#45;&gt;_1500 -->
<g id="edge16" class="edge">
<title>_1000&#45;&gt;_1500</title>
<path fill="none" stroke="#000000" d="M210.8687,-384.7152C215.0603,-374.6553 219.723,-363.4649 224.1368,-352.8717"/>
<polygon fill="#000000" stroke="#000000" points="227.4842,-353.9378 228.0997,-343.3608 221.0227,-351.2454 227.4842,-353.9378"/>
</g>
<!-- _0 -->
<g id="node3" class="node">
<title>_0</title>
<ellipse fill="#000000" stroke="#000000" cx="71" cy="-202" rx="36" ry="36"/>
<text text-anchor="middle" x="71" y="-197.8" font-family="Times,serif" font-size="14.00" fill="#ffffff">_0</text>
</g>
<!-- _80&#45;&gt;_0 -->
<g id="edge3" class="edge">
<title>_80&#45;&gt;_0</title>
<path fill="none" stroke="#000000" d="M130.2935,-281.058C120.6693,-268.2257 109.2257,-252.9677 98.971,-239.2946"/>
<polygon fill="#000000" stroke="#000000" points="101.5665,-236.9219 92.7664,-231.0219 95.9665,-241.1219 101.5665,-236.9219"/>
</g>
<!-- _200 -->
<g id="node6" class="node">
<title>_200</title>
<ellipse fill="#000000" stroke="#000000" cx="161" cy="-202" rx="36" ry="36"/>
<text text-anchor="middle" x="161" y="-197.8" font-family="Times,serif" font-size="14.00" fill="#ffffff">_200</text>
</g>
<!-- _80&#45;&gt;_200 -->
<g id="edge10" class="edge">
<title>_80&#45;&gt;_200</title>
<path fill="none" stroke="#000000" d="M154.9969,-274.0376C155.6878,-265.746 156.4322,-256.8135 157.1537,-248.1558"/>
<polygon fill="#000000" stroke="#000000" points="160.6429,-248.4298 157.9855,-238.1736 153.6671,-247.8484 160.6429,-248.4298"/>
</g>
<!-- _0lnil -->
<g id="node4" class="node">
<title>_0lnil</title>
<polygon fill="#000000" stroke="#000000" points="36,-105 0,-105 0,-83 36,-83 36,-105"/>
<text text-anchor="middle" x="18" y="-89.8" font-family="Times,serif" font-size="14.00" fill="#ff0000">nil</text>
</g>
<!-- _0&#45;&gt;_0lnil -->
<g id="edge1" class="edge">
<title>_0&#45;&gt;_0lnil</title>
<path fill="none" stroke="#000000" d="M55.0983,-169.5964C46.2939,-151.6555 35.6209,-129.9068 27.9873,-114.3514"/>
<polygon fill="#000000" stroke="#000000" points="31.0075,-112.5612 23.4599,-105.1259 24.7234,-115.6451 31.0075,-112.5612"/>
</g>
<!-- _0rnil -->
<g id="node5" class="node">
<title>_0rnil</title>
<polygon fill="#000000" stroke="#000000" points="90,-105 54,-105 54,-83 90,-83 90,-105"/>
<text text-anchor="middle" x="72" y="-89.8" font-family="Times,serif" font-size="14.00" fill="#ff0000">nil</text>
</g>
<!-- _0&#45;&gt;_0rnil -->
<g id="edge2" class="edge">
<title>_0&#45;&gt;_0rnil</title>
<path fill="none" stroke="#000000" d="M71.3358,-165.7371C71.4898,-149.1035 71.6672,-129.9441 71.7999,-115.6121"/>
<polygon fill="#000000" stroke="#000000" points="75.3026,-115.3255 71.8954,-105.2935 68.3029,-115.2606 75.3026,-115.3255"/>
</g>
<!-- _100 -->
<g id="node7" class="node">
<title>_100</title>
<ellipse fill="#ff0000" stroke="#000000" cx="146" cy="-94" rx="36" ry="36"/>
<text text-anchor="middle" x="146" y="-89.8" font-family="Times,serif" font-size="14.00" fill="#ffffff">_100</text>
</g>
<!-- _200&#45;&gt;_100 -->
<g id="edge6" class="edge">
<title>_200&#45;&gt;_100</title>
<path fill="none" stroke="#000000" d="M156.0469,-166.3374C154.8815,-157.9469 153.6231,-148.886 152.4041,-140.1094"/>
<polygon fill="#000000" stroke="#000000" points="155.8417,-139.4175 150.9992,-129.9941 148.9082,-140.3805 155.8417,-139.4175"/>
</g>
<!-- _230 -->
<g id="node10" class="node">
<title>_230</title>
<ellipse fill="#ff0000" stroke="#000000" cx="236" cy="-94" rx="36" ry="36"/>
<text text-anchor="middle" x="236" y="-89.8" font-family="Times,serif" font-size="14.00" fill="#ffffff">_230</text>
</g>
<!-- _200&#45;&gt;_230 -->
<g id="edge9" class="edge">
<title>_200&#45;&gt;_230</title>
<path fill="none" stroke="#000000" d="M181.6926,-172.2026C190.3,-159.8081 200.3968,-145.2686 209.5342,-132.1107"/>
<polygon fill="#000000" stroke="#000000" points="212.5457,-133.9102 215.3749,-123.7001 206.7961,-129.9174 212.5457,-133.9102"/>
</g>
<!-- _100lnil -->
<g id="node8" class="node">
<title>_100lnil</title>
<polygon fill="#000000" stroke="#000000" points="119,-22 83,-22 83,0 119,0 119,-22"/>
<text text-anchor="middle" x="101" y="-6.8" font-family="Times,serif" font-size="14.00" fill="#ff0000">nil</text>
</g>
<!-- _100&#45;&gt;_100lnil -->
<g id="edge4" class="edge">
<title>_100&#45;&gt;_100lnil</title>
<path fill="none" stroke="#000000" d="M128.7305,-62.1474C123.0647,-51.6971 116.9304,-40.3827 111.8754,-31.059"/>
<polygon fill="#000000" stroke="#000000" points="114.9062,-29.3058 107.0631,-22.183 108.7525,-32.6423 114.9062,-29.3058"/>
</g>
<!-- _100rnil -->
<g id="node9" class="node">
<title>_100rnil</title>
<polygon fill="#000000" stroke="#000000" points="173,-22 137,-22 137,0 173,0 173,-22"/>
<text text-anchor="middle" x="155" y="-6.8" font-family="Times,serif" font-size="14.00" fill="#ff0000">nil</text>
</g>
<!-- _100&#45;&gt;_100rnil -->
<g id="edge5" class="edge">
<title>_100&#45;&gt;_100rnil</title>
<path fill="none" stroke="#000000" d="M149.9213,-57.8364C150.8744,-49.0475 151.8626,-39.9339 152.7112,-32.1079"/>
<polygon fill="#000000" stroke="#000000" points="156.2011,-32.3891 153.7996,-22.07 149.2419,-31.6344 156.2011,-32.3891"/>
</g>
<!-- _230lnil -->
<g id="node11" class="node">
<title>_230lnil</title>
<polygon fill="#000000" stroke="#000000" points="245,-22 209,-22 209,0 245,0 245,-22"/>
<text text-anchor="middle" x="227" y="-6.8" font-family="Times,serif" font-size="14.00" fill="#ff0000">nil</text>
</g>
<!-- _230&#45;&gt;_230lnil -->
<g id="edge7" class="edge">
<title>_230&#45;&gt;_230lnil</title>
<path fill="none" stroke="#000000" d="M232.0787,-57.8364C231.1256,-49.0475 230.1374,-39.9339 229.2888,-32.1079"/>
<polygon fill="#000000" stroke="#000000" points="232.7581,-31.6344 228.2004,-22.07 225.7989,-32.3891 232.7581,-31.6344"/>
</g>
<!-- _230rnil -->
<g id="node12" class="node">
<title>_230rnil</title>
<polygon fill="#000000" stroke="#000000" points="299,-22 263,-22 263,0 299,0 299,-22"/>
<text text-anchor="middle" x="281" y="-6.8" font-family="Times,serif" font-size="14.00" fill="#ff0000">nil</text>
</g>
<!-- _230&#45;&gt;_230rnil -->
<g id="edge8" class="edge">
<title>_230&#45;&gt;_230rnil</title>
<path fill="none" stroke="#000000" d="M253.2695,-62.1474C258.9353,-51.6971 265.0696,-40.3827 270.1246,-31.059"/>
<polygon fill="#000000" stroke="#000000" points="273.2475,-32.6423 274.9369,-22.183 267.0938,-29.3058 273.2475,-32.6423"/>
</g>
<!-- _1500lnil -->
<g id="node14" class="node">
<title>_1500lnil</title>
<polygon fill="#000000" stroke="#000000" points="256,-213 220,-213 220,-191 256,-191 256,-213"/>
<text text-anchor="middle" x="238" y="-197.8" font-family="Times,serif" font-size="14.00" fill="#ff0000">nil</text>
</g>
<!-- _1500&#45;&gt;_1500lnil -->
<g id="edge12" class="edge">
<title>_1500&#45;&gt;_1500lnil</title>
<path fill="none" stroke="#000000" d="M240.6569,-273.7371C240.0409,-257.1035 239.3313,-237.9441 238.8004,-223.6121"/>
<polygon fill="#000000" stroke="#000000" points="242.2861,-223.157 238.4183,-213.2935 235.2909,-223.4162 242.2861,-223.157"/>
</g>
<!-- _2000 -->
<g id="node15" class="node">
<title>_2000</title>
<ellipse fill="#ff0000" stroke="#000000" cx="310" cy="-202" rx="36" ry="36"/>
<text text-anchor="middle" x="310" y="-197.8" font-family="Times,serif" font-size="14.00" fill="#ffffff">_2000</text>
</g>
<!-- _1500&#45;&gt;_2000 -->
<g id="edge15" class="edge">
<title>_1500&#45;&gt;_2000</title>
<path fill="none" stroke="#000000" d="M261.3042,-279.3404C268.7695,-267.4838 277.4052,-253.7682 285.3128,-241.2091"/>
<polygon fill="#000000" stroke="#000000" points="288.2812,-243.0635 290.6475,-232.7362 282.3576,-239.3337 288.2812,-243.0635"/>
</g>
<!-- _2000lnil -->
<g id="node16" class="node">
<title>_2000lnil</title>
<polygon fill="#000000" stroke="#000000" points="327,-105 291,-105 291,-83 327,-83 327,-105"/>
<text text-anchor="middle" x="309" y="-89.8" font-family="Times,serif" font-size="14.00" fill="#ff0000">nil</text>
</g>
<!-- _2000&#45;&gt;_2000lnil -->
<g id="edge13" class="edge">
<title>_2000&#45;&gt;_2000lnil</title>
<path fill="none" stroke="#000000" d="M309.6642,-165.7371C309.5102,-149.1035 309.3328,-129.9441 309.2001,-115.6121"/>
<polygon fill="#000000" stroke="#000000" points="312.6971,-115.2606 309.1046,-105.2935 305.6974,-115.3255 312.6971,-115.2606"/>
</g>
<!-- _2000rnil -->
<g id="node17" class="node">
<title>_2000rnil</title>
<polygon fill="#000000" stroke="#000000" points="381,-105 345,-105 345,-83 381,-83 381,-105"/>
<text text-anchor="middle" x="363" y="-89.8" font-family="Times,serif" font-size="14.00" fill="#ff0000">nil</text>
</g>
<!-- _2000&#45;&gt;_2000rnil -->
<g id="edge14" class="edge">
<title>_2000&#45;&gt;_2000rnil</title>
<path fill="none" stroke="#000000" d="M325.9017,-169.5964C334.7061,-151.6555 345.3791,-129.9068 353.0127,-114.3514"/>
<polygon fill="#000000" stroke="#000000" points="356.2766,-115.6451 357.5401,-105.1259 349.9925,-112.5612 356.2766,-115.6451"/>
</g>
</g>
</svg>
